<svg xmlns="http://www.w3.org/2000/svg" width="1200" height="520" viewBox="0 0 1200 520">
  <defs><style>.t{font:700 26px Inter,Arial;fill:#0f172a}.b{fill:#fff;stroke:#cbd5e1;stroke-width:2;rx:16}.p{fill:#eef2ff;stroke:#6366f1;stroke-width:2;rx:16}.x{font:700 16px Inter,Arial;fill:#111827}.s{font:500 13px Inter,Arial;fill:#64748b}.l{stroke:#64748b;stroke-width:2.2;fill:none;marker-end:url(#a)}</style><marker id="a" markerWidth="10" markerHeight="10" refX="8" refY="3" orient="auto"><path d="M0,0 L0,6 L9,3 z" fill="#64748b"/></marker></defs>
  <rect width="1200" height="520" rx="24" fill="#f8fafc"/><text x="50" y="55" class="t">Alur Kunjungan Sales</text>
  <rect x="50" y="130" width="160" height="80" class="b"/><text x="130" y="163" text-anchor="middle" class="x">Buat Jadwal</text><text x="130" y="186" text-anchor="middle" class="s">admin / supervisor</text>
  <rect x="260" y="130" width="160" height="80" class="b"/><text x="340" y="163" text-anchor="middle" class="x">Sales Datang</text><text x="340" y="186" text-anchor="middle" class="s">ke outlet</text>
  <rect x="470" y="130" width="160" height="80" class="p"/><text x="550" y="163" text-anchor="middle" class="x">Check-in</text><text x="550" y="186" text-anchor="middle" class="s">GPS + wajah</text>
  <rect x="680" y="90" width="170" height="70" class="b"/><text x="765" y="120" text-anchor="middle" class="x">Validasi GPS</text><text x="765" y="142" text-anchor="middle" class="s">radius outlet</text>
  <rect x="680" y="190" width="170" height="70" class="b"/><text x="765" y="220" text-anchor="middle" class="x">Validasi Wajah</text><text x="765" y="242" text-anchor="middle" class="s">deteksi / match</text>
  <rect x="910" y="130" width="160" height="80" class="p"/><text x="990" y="163" text-anchor="middle" class="x">Visit Aktif</text><text x="990" y="186" text-anchor="middle" class="s">durasi berjalan</text>
  <rect x="260" y="330" width="160" height="80" class="b"/><text x="340" y="363" text-anchor="middle" class="x">Aktivitas</text><text x="340" y="386" text-anchor="middle" class="s">diskusi / order</text>
  <rect x="470" y="330" width="160" height="80" class="b"/><text x="550" y="363" text-anchor="middle" class="x">Check-out</text><text x="550" y="386" text-anchor="middle" class="s">selesai kunjungan</text>
  <rect x="680" y="330" width="170" height="80" class="b"/><text x="765" y="363" text-anchor="middle" class="x">Hitung Durasi</text><text x="765" y="386" text-anchor="middle" class="s">check-in ke check-out</text>
  <rect x="910" y="330" width="160" height="80" class="b"/><text x="990" y="363" text-anchor="middle" class="x">Laporan</text><text x="990" y="386" text-anchor="middle" class="s">performa sales</text>
  <path d="M210 170 L260 170" class="l"/><path d="M420 170 L470 170" class="l"/><path d="M630 160 L680 125" class="l"/><path d="M630 180 L680 225" class="l"/><path d="M850 125 C880 125 890 150 910 160" class="l"/><path d="M850 225 C880 225 890 190 910 180" class="l"/><path d="M990 210 C990 285 415 285 340 330" class="l"/><path d="M420 370 L470 370" class="l"/><path d="M630 370 L680 370" class="l"/><path d="M850 370 L910 370" class="l"/>
</svg>
